<svg data-v-fde0c5aa="" xmlns="http://www.w3.org/2000/svg" viewBox="0 0 300 300" class="iconAbove"><!----><defs data-v-fde0c5aa=""><!----></defs><rect data-v-fde0c5aa="" fill="#FFFFFF" x="0" y="0" width="300px" height="300px" class="logo-background-square"></rect><defs data-v-fde0c5aa=""><!----></defs><g data-v-fde0c5aa="" id="7db950f7-b5ca-4b3f-800e-91c24346165d" fill="#3e64ff" transform="matrix(3.9822330579592093,0,0,3.9822330579592093,16.973502913928506,168.3582492053055)"><path d="M5.88 11.49L5.88 11.83C5.85 12.82 5.43 13.23 4.62 13.23C3.65 13.23 3.30 12.73 3.30 11.55L3.30 8.48C3.30 7.28 3.67 6.76 4.62 6.76C5.40 6.76 5.87 7.20 5.87 8.16L5.87 8.39L8.46 8.39L8.46 8.20C8.46 5.80 7.17 4.49 4.62 4.49C1.99 4.49 0.76 5.87 0.76 8.36L0.76 11.65C0.76 14.13 1.99 15.50 4.62 15.50C7.20 15.50 8.46 14.18 8.47 11.79L8.47 11.49ZM12.12 4.52L9.76 4.52L9.76 15.33L12.12 15.33L12.12 9.95C12.12 9.09 12.49 8.74 13.15 8.74C13.87 8.74 14.14 9.10 14.14 10.00L14.14 15.33L16.51 15.33L16.51 9.73C16.51 7.63 15.68 6.66 13.94 6.66C13.13 6.66 12.57 6.85 12.12 7.20ZM22.41 15.33L24.49 15.33L24.49 9.67C24.49 7.41 23.20 6.66 21.25 6.66C19.24 6.66 18.03 7.48 18.03 9.69L20.16 9.69C20.16 8.89 20.50 8.57 21.22 8.57C21.90 8.57 22.23 8.90 22.23 9.72L22.23 10.28C21.90 10.23 21.48 10.21 21.14 10.21C18.76 10.21 17.78 11.14 17.78 12.99C17.78 14.59 18.82 15.50 20.33 15.50C21.22 15.50 21.90 15.23 22.32 14.77ZM22.23 12.45C22.23 13.24 21.67 13.64 21.06 13.64C20.44 13.64 20.10 13.34 20.10 12.74C20.10 12.10 20.45 11.80 21.43 11.80C21.69 11.80 22.05 11.84 22.23 11.89ZM29.26 13.36C28.55 13.36 28.29 13.06 28.29 12.14L28.29 9.38L29.82 9.38L29.82 7.32L28.29 7.32L28.29 5.39L25.87 5.39L25.87 12.05C25.87 14.38 26.54 15.50 28.67 15.50C29.15 15.50 29.62 15.44 29.81 15.40L29.81 13.30C29.67 13.34 29.46 13.36 29.26 13.36ZM37.00 15.33L39.70 15.33L36.60 4.66L33.71 4.66L30.59 15.33L33.19 15.33L33.77 12.84L36.43 12.84ZM35.10 7.08L35.94 10.71L34.26 10.71ZM44.10 6.83L42.97 12.60L42.21 6.83L39.66 6.83L41.57 15.33L44.14 15.33L45.16 10.19L46.20 15.33L48.80 15.33L50.71 6.83L48.17 6.83L47.43 12.47L46.40 6.83ZM55.89 15.33L57.96 15.33L57.96 9.67C57.96 7.41 56.67 6.66 54.73 6.66C52.71 6.66 51.51 7.48 51.51 9.69L53.63 9.69C53.63 8.89 53.97 8.57 54.70 8.57C55.37 8.57 55.71 8.90 55.71 9.72L55.71 10.28C55.37 10.23 54.95 10.21 54.61 10.21C52.23 10.21 51.25 11.14 51.25 12.99C51.25 14.59 52.29 15.50 53.80 15.50C54.70 15.50 55.37 15.23 55.79 14.77ZM55.71 12.45C55.71 13.24 55.15 13.64 54.53 13.64C53.91 13.64 53.58 13.34 53.58 12.74C53.58 12.10 53.93 11.80 54.91 11.80C55.16 11.80 55.52 11.84 55.71 11.89ZM61.00 15.15C60.86 15.71 60.30 15.86 59.72 15.86C59.47 15.86 59.19 15.82 59.04 15.76L59.04 18.02C59.25 18.10 59.63 18.17 60.30 18.17C62.24 18.17 63.39 17.28 64.19 14.15L66.05 6.83L63.43 6.83L62.44 12.66L61.14 6.83L58.52 6.83L61.01 15.08Z"></path></g><defs data-v-fde0c5aa=""><!----></defs><g data-v-fde0c5aa="" id="ba1fcd2a-e6f4-4d91-93d8-2836285a8478" stroke="none" fill="#3e64ff" transform="matrix(1.0895389058380396,0,0,1.0895389058380396,95.52305470809802,59.28458206214702)"><path d="M74.988 37.5c0 13.807-11.182 25-24.988 25C50 55.604 44.396 50 37.5 50H24.988C12.5 50 0 42.969 0 25 0 6.641 12.5 0 24.988 0H50c12.5 0 24.988 7.745 24.988 25v12.5z"></path><path d="M81.189 38.165C80.822 55.078 66.992 68.75 50 68.75h-6.25V62.5a6.259 6.259 0 0 0-6.25-6.25H25.623a31.336 31.336 0 0 0-.635 6.25V75c0 13.807 11.205 25 25.012 25 0-6.909 5.604-12.5 12.5-12.5h12.488C87.5 87.5 100 80.469 100 62.5c0-15.289-8.703-22.375-18.811-24.335z"></path></g><!----></svg>